<?xml version="1.0" encoding="utf-8"?>
<!-- Generator: Adobe Illustrator 16.0.0, SVG Export Plug-In . SVG Version: 6.00 Build 0)  -->
<!DOCTYPE svg PUBLIC "-//W3C//DTD SVG 1.1//EN" "http://www.w3.org/Graphics/SVG/1.1/DTD/svg11.dtd">
<svg version="1.1" id="Layer_1" xmlns="http://www.w3.org/2000/svg" xmlns:xlink="http://www.w3.org/1999/xlink" x="0px" y="0px"
	 width="98.801px" height="54.551px" viewBox="0.66 22.78 98.801 54.551" enable-background="new 0.66 22.78 98.801 54.551"
	 xml:space="preserve">
<g transform="matrix(1,0,0,1,10.9432,0)">
	<g transform="matrix(1,-0,-0,1,-10.9432,0)">
		<g transform="matrix(0.999907,0,0,1,0,0)">
			<g>
				<g>
					<path fill="#FFFFFF" d="M35.73,22.78c0.53,0.14,1.09,0.22,1.59,0.44c1.85,0.819,2.89,2.26,3.1,4.27
						c0.14,1.26-0.23,2.4-0.92,3.45c-4.94,7.41-9.88,14.82-14.82,22.22c-0.06,0.101-0.13,0.19-0.16,0.33
						c0.09-0.06,0.19-0.12,0.28-0.18c7.4-4.931,14.8-9.87,22.2-14.8c1.56-1.04,3.22-1.28,4.98-0.601c2.11,0.82,3.45,3.09,3.18,5.34
						c-0.08,0.65-0.27,1.261-0.561,1.84C49.72,54.85,44.84,64.61,39.96,74.37c-1.09,2.18-3.24,3.26-5.62,2.86
						c-2.33-0.4-4.15-2.54-4.19-4.91c-0.01-0.94,0.21-1.81,0.63-2.65c1.93-3.859,3.86-7.71,5.79-11.569
						c0.04-0.09,0.08-0.181,0.16-0.34c-0.16,0.1-0.26,0.159-0.35,0.229C27.2,64.11,18.01,70.23,8.83,76.35
						c-1.57,1.05-3.25,1.29-5,0.56c-1.79-0.75-2.81-2.149-3.12-4.06C0.7,72.76,0.67,72.67,0.66,72.58c0-0.29,0-0.58,0-0.87
						c0.01-0.029,0.04-0.06,0.04-0.1c0.09-0.99,0.51-1.84,1.06-2.65C5,64.11,8.23,59.26,11.47,54.4
						c6.48-9.72,12.96-19.44,19.44-29.16c0.72-1.08,1.67-1.86,2.92-2.229c0.34-0.101,0.69-0.15,1.03-0.23
						C35.15,22.78,35.44,22.78,35.73,22.78z"/>
					<path fill="#FFFFFF" d="M99.439,72.58C99.32,73.05,99.25,73.54,99.08,74c-0.77,2.09-2.85,3.46-5.07,3.311
						C92.999,77.23,92,77.02,91,76.86c-2.55-0.41-5.09-0.82-7.64-1.22c-2.55-0.41-5.09-0.82-7.639-1.221
						c-2.551-0.409-5.11-0.819-7.661-1.229c-2.549-0.41-5.11-0.82-7.659-1.23c-0.91-0.149-1.811-0.279-2.711-0.46
						c-2.11-0.43-3.789-2.38-3.959-4.52c-0.1-1.26,0.21-2.391,0.9-3.44C63.049,50.77,71.47,38,79.89,25.22
						c0.901-1.37,2.15-2.19,3.79-2.391c0.04-0.01,0.08-0.03,0.119-0.05c0.291,0,0.58,0,0.871,0c0.08,0.02,0.16,0.04,0.239,0.05
						c1.98,0.22,3.74,1.71,4.29,3.62c0.46,1.61,0.189,3.1-0.731,4.49C81.58,41.39,74.69,51.84,67.8,62.29
						c-0.07,0.11-0.14,0.221-0.229,0.351c0.149,0.029,0.249,0.05,0.34,0.06c1.191,0.19,2.38,0.38,3.579,0.57
						c2.551,0.41,5.09,0.819,7.64,1.229s5.09,0.82,7.64,1.221c2.67,0.43,5.34,0.88,8.02,1.279c2.34,0.351,3.99,1.78,4.539,4
						c0.061,0.23,0.1,0.46,0.141,0.69C99.439,72,99.439,72.29,99.439,72.58z"/>
				</g>
			</g>
		</g>
	</g>
</g>
</svg>
