<?xml version="1.0" encoding="utf-8"?>
<!-- Generator: Adobe Illustrator 16.0.0, SVG Export Plug-In . SVG Version: 6.00 Build 0)  -->
<!DOCTYPE svg PUBLIC "-//W3C//DTD SVG 1.1//EN" "http://www.w3.org/Graphics/SVG/1.1/DTD/svg11.dtd">
<svg version="1.1" id="Layer_1" xmlns="http://www.w3.org/2000/svg" xmlns:xlink="http://www.w3.org/1999/xlink" x="0px" y="0px"
	 width="73.701px" height="73.701px" viewBox="0 0 73.701 73.701" enable-background="new 0 0 73.701 73.701" xml:space="preserve">
<path id="Content_Management_1_" fill-rule="evenodd" clip-rule="evenodd" fill="#404041" d="M15.023,16.894h8.73
	c0.344,0,0.625,0.281,0.625,0.625v8.73c0,0.342-0.281,0.623-0.625,0.623h-8.73c-0.342,0-0.623-0.281-0.623-0.623v-8.73
	C14.4,17.175,14.681,16.894,15.023,16.894L15.023,16.894z M20.012,31.862h6.236c0.344,0,0.625,0.292,0.625,0.623v1.248
	c0,0.33-0.293,0.623-0.625,0.623h-6.236c-0.329,0-0.625-0.281-0.625-0.623v-1.248C19.388,32.143,19.668,31.862,20.012,31.862
	L20.012,31.862z M15.023,31.862h1.248c0.343,0,0.623,0.287,0.623,0.623v1.248c0,0.335-0.288,0.623-0.623,0.623h-1.248
	c-0.336,0-0.623-0.281-0.623-0.623v-1.248C14.4,32.143,14.681,31.862,15.023,31.862L15.023,31.862z M47.565,24.378h11.111
	c0.344,0,0.624,0.292,0.624,0.623v1.248c0,0.333-0.292,0.623-0.624,0.623H47.565c-0.332,0-0.623-0.281-0.623-0.623v-1.248
	C46.942,24.659,47.224,24.378,47.565,24.378L47.565,24.378z M38.834,24.378h4.989c0.344,0,0.624,0.285,0.624,0.623v1.248
	c0,0.339-0.284,0.623-0.624,0.623h-4.989c-0.339,0-0.623-0.281-0.623-0.623v-1.248C38.211,24.659,38.492,24.378,38.834,24.378
	L38.834,24.378z M30.104,24.378h4.987c0.344,0,0.625,0.285,0.625,0.623v1.248c0,0.339-0.284,0.623-0.625,0.623h-4.987
	c-0.341,0-0.625-0.281-0.625-0.623v-1.248C29.48,24.659,29.761,24.378,30.104,24.378L30.104,24.378z M53.801,16.894h-4.366
	c-0.335,0-0.621,0.288-0.621,0.625v1.246c0,0.335,0.279,0.625,0.621,0.625h4.366c0.344,0,0.624-0.281,0.624-0.625v-1.246
	C54.425,17.175,54.13,16.894,53.801,16.894L53.801,16.894z M40.706,16.894H30.102c-0.338,0-0.622,0.284-0.622,0.625v1.246
	c0,0.341,0.281,0.625,0.622,0.625h10.604c0.343,0,0.622-0.281,0.622-0.625v-1.246C41.328,17.175,41.045,16.894,40.706,16.894
	L40.706,16.894z M44.447,16.894h1.246c0.344,0,0.625,0.282,0.625,0.625v1.246c0,0.342-0.282,0.625-0.625,0.625h-1.246
	c-0.342,0-0.624-0.281-0.624-0.625v-1.246C43.823,17.175,44.104,16.894,44.447,16.894L44.447,16.894z M36.851,53.51
	c6.641,0,12.027,5.386,12.027,12.027c5.5,0,11,0,16.502,0c1.458,0,2.652-1.193,2.652-2.651c0-19.019,0-33.049,0-52.066
	c0-1.461-1.194-2.656-2.652-2.656c-19.021,0-38.038,0-57.058,0c-1.458,0-2.652,1.195-2.652,2.656c0,19.02,0,33.046,0,52.066
	c0,1.455,1.194,2.651,2.652,2.651c5.5,0,11,0,16.502,0C24.824,58.896,30.208,53.51,36.851,53.51L36.851,53.51z M64.211,60.903
	c0.052-0.138,0.078-0.283,0.078-0.436c0-13.741,0-33.496,0-47.237c0-0.71-0.597-1.325-1.327-1.325c-17.029,0-35.193,0-52.224,0
	c-0.729,0-1.328,0.602-1.328,1.325c0,13.741,0,33.496,0,47.237c0,0.158,0.031,0.312,0.084,0.453l5.919-1.948
	c0.421-1.366,0.965-2.682,1.626-3.925l-2.974-5.902c1.852-2.542,3.985-4.659,6.381-6.378l5.891,2.974
	c1.243-0.66,2.554-1.209,3.922-1.63l2.068-6.276c3.111-0.487,6.113-0.476,9.024,0l2.062,6.268c1.368,0.42,2.682,0.965,3.923,1.624
	l5.901-2.974c2.545,1.851,4.661,3.985,6.383,6.38l-2.976,5.893c0.66,1.243,1.208,2.554,1.629,3.922L64.211,60.903z"/>
</svg>
