<?xml version="1.0" encoding="utf-8"?>
<!-- Generator: Adobe Illustrator 16.0.0, SVG Export Plug-In . SVG Version: 6.00 Build 0)  -->
<!DOCTYPE svg PUBLIC "-//W3C//DTD SVG 1.1//EN" "http://www.w3.org/Graphics/SVG/1.1/DTD/svg11.dtd">
<svg version="1.1" id="Layer_1" xmlns="http://www.w3.org/2000/svg" xmlns:xlink="http://www.w3.org/1999/xlink" x="0px" y="0px"
	 width="73.701px" height="73.701px" viewBox="0 0 73.701 73.701" enable-background="new 0 0 73.701 73.701" xml:space="preserve">
<path id="Places_Optimizations_1_" fill-rule="evenodd" clip-rule="evenodd" fill="#404041" d="M36.924,11.907
	c6.399,0,11.587,5.186,11.587,11.584c0,6.399-5.188,11.586-11.587,11.586c-6.398,0-11.583-5.187-11.583-11.586
	C25.341,17.093,30.525,11.907,36.924,11.907L36.924,11.907z M50.594,43.879c7.571,2.29,12.622,6.412,12.622,11.122
	c0,7.198-11.803,13.03-26.365,13.03c-14.562,0-26.366-5.832-26.366-13.03c0-4.734,5.107-8.879,12.748-11.161l1.372,2.259
	c-4.114,1.472-6.728,3.668-6.728,6.126c0,4.431,8.495,8.019,18.974,8.019c10.48,0,18.974-3.588,18.974-8.019
	c0-2.434-2.561-4.61-6.605-6.081L50.594,43.879L50.594,43.879z M36.924,5.669c-9.843,0-17.822,7.979-17.822,17.822
	c0,3.071,0.776,5.959,2.143,8.48l0,0l0.009,0.016c0.092,0.169,0.186,0.334,0.284,0.499l13.357,21.993
	c1.176,1.937,2.889,1.931,4.062,0l13.356-21.99c0.097-0.166,0.193-0.333,0.283-0.501l0.01-0.016v-0.001
	c1.365-2.521,2.142-5.408,2.142-8.479C54.747,13.649,46.77,5.669,36.924,5.669z"/>
</svg>
