<?xml version="1.0" encoding="utf-8"?>
<!-- Generator: Adobe Illustrator 16.0.0, SVG Export Plug-In . SVG Version: 6.00 Build 0)  -->
<!DOCTYPE svg PUBLIC "-//W3C//DTD SVG 1.1//EN" "http://www.w3.org/Graphics/SVG/1.1/DTD/svg11.dtd">
<svg version="1.1" id="Layer_1" xmlns="http://www.w3.org/2000/svg" xmlns:xlink="http://www.w3.org/1999/xlink" x="0px" y="0px"
	 width="73.701px" height="73.701px" viewBox="0 0 73.701 73.701" enable-background="new 0 0 73.701 73.701" xml:space="preserve">
<path id="Responsive_Design_1_" fill-rule="evenodd" clip-rule="evenodd" fill="#404041" d="M62.536,26.001h0.891
	c0.271,0,0.49,0.219,0.49,0.491l0,0c0,0.269-0.22,0.489-0.49,0.489h-0.891c-0.27,0-0.49-0.221-0.49-0.489l0,0
	C62.046,26.22,62.267,26.001,62.536,26.001L62.536,26.001z M53.991,25.999h5.696c0.269,0,0.488,0.221,0.488,0.49v0.003
	c0,0.267-0.22,0.487-0.488,0.487h-5.696c-0.267,0-0.488-0.221-0.488-0.487v-0.003C53.503,26.22,53.722,25.999,53.991,25.999
	L53.991,25.999z M58.71,52.365c0.957,0,1.73,0.776,1.73,1.731s-0.773,1.731-1.73,1.731c-0.956,0-1.731-0.776-1.731-1.731
	S57.754,52.365,58.71,52.365L58.71,52.365z M51.502,23.573c-1.16,0-2.114,0.953-2.114,2.113v29.212c0,1.162,0.961,2.113,2.114,2.113
	h14.416c1.154,0,2.113-0.96,2.113-2.113V25.687c0-1.152-0.952-2.113-2.113-2.113H51.502L51.502,23.573z M51.789,29.405h13.842
	c0.349,0,0.632,0.31,0.632,0.633v20.508c0,0.324-0.31,0.635-0.632,0.635H51.789c-0.323,0-0.633-0.285-0.633-0.635V30.038
	C51.156,29.688,51.442,29.405,51.789,29.405L51.789,29.405z M10.061,12.422h53.58c0.418,0,0.757,0.353,0.757,0.757v5.406h3.634
	v-7.918c0-1.023-0.843-1.877-1.876-1.877H7.546c-1.033,0-1.876,0.841-1.876,1.877v42.393c0,1.035,0.856,1.879,1.876,1.879h23.07
	c0,5.481-4.421,9.93-9.892,9.976h32.252c-5.471-0.046-9.892-4.493-9.892-9.976h1.313v-7.483H10.061
	c-0.404,0-0.758-0.343-0.758-0.757V13.179C9.303,12.761,9.643,12.422,10.061,12.422z"/>
</svg>
