<?xml version="1.0" encoding="utf-8"?>
<!-- Generator: Adobe Illustrator 16.0.0, SVG Export Plug-In . SVG Version: 6.00 Build 0)  -->
<!DOCTYPE svg PUBLIC "-//W3C//DTD SVG 1.1//EN" "http://www.w3.org/Graphics/SVG/1.1/DTD/svg11.dtd">
<svg version="1.1" id="Layer_1" xmlns="http://www.w3.org/2000/svg" xmlns:xlink="http://www.w3.org/1999/xlink" x="0px" y="0px"
	 width="73.701px" height="73.701px" viewBox="0 0 73.701 73.701" enable-background="new 0 0 73.701 73.701" xml:space="preserve">
<path id="Web_Development_1_" fill-rule="evenodd" clip-rule="evenodd" fill="#404041" d="M36.851,5.67
	c10.899,0,20.493,5.595,26.067,14.069c-2.655-1.442-5.574-2.22-8.514-2.327c-0.664-0.599-1.36-1.166-2.082-1.694
	c0.151,0.345,0.221,0.875,0.237,1.64h-1.389c-0.367-1.371-0.189-0.75-0.929-1.854c0.57-0.205,1.009-0.321,1.344-0.308
	c-0.92-0.627-1.882-1.199-2.882-1.708c0.705,1.175-0.149,0.93-0.292,4.642c-0.424,0.12-0.845,0.255-1.264,0.404
	c-1.464-1.105-2.108-2.902-2.855-4.282c-1.524-2.803-1.971-2.759-3.2-3.249c-0.642-0.106-1.292-0.186-1.947-0.244
	c0.028,1.501,0.086,0.533,1.687,2.116c1.699,1.68,0.361,1.472,2.467,1.703c-0.212,2.532-1.188,2.14-1.854,4.63
	c1.716-0.458,0.599-0.468,2.314-0.927c0,1.06-0.028,1.495,0.061,1.822c-1.355,0.805-2.636,1.791-3.802,2.956
	c-3.794,3.794-5.682,8.771-5.663,13.744h-4.489c-0.45,1.937-0.871,1.274-0.925,3.707c1.267,0.457,0.953-0.026,1.39,1.851h1.389
	v-1.851c3.191,0,1.914-0.372,1.871,2.372l1.62-0.46c0.067,0.222,0.139,0.438,0.214,0.656v2.061h0.853
	c0.301,0.627,0.642,1.242,1.014,1.839c-2.237-0.08-1.614-0.526-3.87-1.688l-1.954-0.823c-2.051-0.563-1.756,0.163-4.46-1.096
	c-1.722-0.803-1.72-0.566-1.771-2.86c-1.978,0.715-0.507,0.728-2.316,0.925l-1.053-2.187c-0.052-0.089-0.123-0.202-0.173-0.292
	l-1.056-2.186c-0.387-0.745-0.63-1.149-0.819-1.376c-0.167-0.201,1.352,4.723,1.199,4.689c-0.154-0.036-2.155-4.817-2.4-5.101
	c0-5.365,1.11-8.135,0.831-10.076c-0.001-0.008-0.542-0.173-0.198-1.998c0.336-1.78,0.428-2.157,0.428-4.627
	c-0.258,0.173-0.753,0.425-1.163,0.689c-0.738,0.474-2.249,2.164-3.097,2.816c-2.999,4.261-4.762,9.456-4.762,15.063
	c0,14.465,11.726,26.19,26.192,26.19c6.694,0,12.802-2.512,17.434-6.646l0.355-0.355c2.95-0.143,5.872-0.962,8.519-2.452
	c-5.534,8.683-15.247,14.443-26.308,14.443c-17.222,0-31.181-13.96-31.181-31.181C5.67,19.629,19.629,5.67,36.851,5.67L36.851,5.67z
	 M37.948,47.955c-0.524,0.062-1.524,0.343-1.598,3.67c1.213,0.438,0.815,0.612,1.995,2.174c1.567,2.074,1.516,0.973,1.739,2.944
	c0.326,2.9-0.671,3.55-1.267,5.752c-0.014,0.058-0.031,0.119-0.046,0.18c0.072-0.009,0.144-0.021,0.212-0.036
	c1.141-0.245,1.908-0.726,2.816-1.368l3.529-2.984c1.931-1.833,2.858-2.037,3.644-2.805c-3.28-0.822-6.388-2.515-8.955-5.081
	C39.251,49.63,38.561,48.813,37.948,47.955L37.948,47.955z M33.367,18.22l-0.063,2.153c2.664,0.291,4.902,3.381,4.902,0.226
	c0-2.631,0.048-2.949-2.781-3.705L33.367,18.22L33.367,18.22z M38.815,16.375c0.163-0.944,0.859-0.396,1.369-1.806
	c-2.42,0.947,0.038-2.691-1.876-0.256c-0.782,0.996-0.332,2.071-0.103,3.045h1.85C39.855,16.15,41.359,16.426,38.815,16.375
	L38.815,16.375z M50.162,33.204c-1.948,1.948-1.948,5.104,0,7.053c1.948,1.949,5.104,1.949,7.053,0c1.947-1.948,1.947-5.105,0-7.053
	C55.267,31.256,52.11,31.256,50.162,33.204L50.162,33.204z M42.044,28.354l1.521,3.016c-0.341,0.645-0.616,1.318-0.828,2.005
	l-3.205,1.054c-0.244,1.487-0.25,3.022,0,4.612l3.208,1.057c0.209,0.688,0.487,1.361,0.831,2.007l-1.519,3.01
	c0.879,1.223,1.959,2.314,3.26,3.26l3.017-1.52c0.645,0.342,1.317,0.618,2.005,0.829l1.055,3.202c1.486,0.245,3.021,0.252,4.611,0
	l1.06-3.207c0.685-0.21,1.358-0.488,2.003-0.83l3.011,1.52c1.223-0.88,2.314-1.959,3.26-3.262l-1.519-3.015
	c0.341-0.647,0.619-1.319,0.828-2.007l3.202-1.053c0.247-1.488,0.252-3.023,0-4.612l-3.205-1.058
	c-0.212-0.689-0.49-1.361-0.834-2.007l1.521-3.008c-0.88-1.226-1.959-2.314-3.26-3.263l-3.017,1.521
	c-0.647-0.342-1.317-0.617-2.005-0.828l-1.055-3.206c-1.489-0.243-3.024-0.249-4.611,0l-1.061,3.208
	c-0.688,0.209-1.357,0.488-2.005,0.831l-3.008-1.518C44.081,25.974,42.992,27.054,42.044,28.354z"/>
</svg>
